<?xml version="1.0" encoding="utf-8"?>
<!-- Generator: Adobe Illustrator 19.2.1, SVG Export Plug-In . SVG Version: 6.00 Build 0)  -->
<svg version="1.1" id="Layer_1" xmlns="http://www.w3.org/2000/svg" xmlns:xlink="http://www.w3.org/1999/xlink" x="0px" y="0px"
	 viewBox="0 0 60.3 58.8" style="enable-background:new 0 0 60.3 58.8;" xml:space="preserve">
<style type="text/css">
	.st0{fill:none;stroke:url(#SVGID_1_);stroke-width:5;stroke-linecap:round;stroke-miterlimit:10;}
</style>
<g>
	<g>
		<linearGradient id="SVGID_1_" gradientUnits="userSpaceOnUse" x1="0" y1="29.3809" x2="60.3047" y2="29.3809">
			<stop  offset="0" style="stop-color:#014CA6"/>
			<stop  offset="0.7833" style="stop-color:#01ABCF"/>
			<stop  offset="1" style="stop-color:#2FD3E5"/>
		</linearGradient>
		<path class="st0" d="M15.7,18.8c-3.9,0-7,3.1-7,7s3.1,7,7,7s7-3.1,7-7S19.6,18.8,15.7,18.8z M28.9,56.3c0-7.3-5.9-13.2-13.2-13.2
			S2.5,49,2.5,56.3 M44.6,2.5c-3.9,0-7,3.1-7,7s3.1,7,7,7s7-3.1,7-7S48.5,2.5,44.6,2.5z M57.8,56.3V39.9c0-7.3-5.9-13.2-13.2-13.2
			s-13.2,5.9-13.2,13.2"/>
	</g>
</g>
</svg>
